<?xml version="1.0" standalone="no"?>
<!DOCTYPE svg PUBLIC "-//W3C//DTD SVG 20010904//EN"
 "http://www.w3.org/TR/2001/REC-SVG-20010904/DTD/svg10.dtd">
<svg version="1.0" xmlns="http://www.w3.org/2000/svg"
 width="320.000000pt" height="320.000000pt" viewBox="0 0 320.000000 320.000000"
 preserveAspectRatio="xMidYMid meet">
<metadata>
Created by potrace 1.16, written by Peter Selinger 2001-2019
</metadata>
<g transform="translate(0.000000,320.000000) scale(0.100000,-0.100000)"
fill="#000000" stroke="none">
<path d="M2306 2989 c-16 -4 -38 -17 -50 -28 -15 -14 -26 -17 -36 -11 -8 5
-32 10 -52 10 -71 0 -84 -66 -25 -128 16 -17 20 -33 18 -66 -2 -37 2 -47 23
-64 14 -11 26 -24 26 -29 0 -5 14 -28 31 -51 40 -54 118 -262 99 -262 -5 0
-13 15 -18 32 -11 42 -37 47 -64 13 -15 -19 -24 -23 -31 -16 -6 6 -24 11 -39
11 -22 0 -29 -6 -34 -27 -5 -18 -2 -30 10 -38 25 -19 19 -27 -7 -10 -22 14
-26 14 -50 -6 -31 -24 -34 -45 -10 -71 13 -14 14 -21 5 -30 -9 -9 -12 -8 -12
5 0 20 -33 39 -54 31 -19 -7 -31 -47 -22 -70 5 -13 0 -15 -36 -9 -24 4 -44 8
-46 10 -1 1 4 15 12 31 8 16 18 41 20 55 3 15 21 35 42 50 47 30 74 81 74 137
0 71 -37 122 -88 122 -15 0 -23 14 -37 68 -21 78 -66 139 -131 177 -38 22 -56
26 -136 27 -111 1 -152 -13 -217 -75 -55 -54 -81 -108 -81 -174 0 -50 -1 -53
-26 -53 -63 0 -112 -73 -98 -145 9 -52 71 -115 112 -115 26 0 33 -6 51 -43 12
-24 21 -45 21 -48 0 -2 -25 -5 -56 -6 -96 -5 -128 -19 -226 -101 -112 -94
-178 -179 -247 -319 -114 -231 -102 -361 39 -427 43 -21 147 -44 201 -46 4 0
-3 -26 -14 -57 -16 -44 -41 -77 -108 -147 -259 -271 -351 -414 -453 -700 -20
-55 -38 -101 -40 -103 -2 -2 -48 -12 -102 -22 -152 -26 -272 -102 -257 -161
11 -40 51 -45 388 -45 274 0 324 2 345 16 27 17 156 69 430 174 115 43 239 98
330 145 82 42 104 48 136 37 31 -11 304 -321 304 -346 0 -5 6 -13 13 -18 20
-12 257 -29 449 -32 171 -2 177 -1 188 19 15 28 -1 76 -40 118 -29 32 -114 77
-214 112 l-48 18 -83 245 c-45 135 -85 249 -88 255 -4 5 33 11 91 15 53 3 121
11 150 17 46 10 52 14 52 37 0 31 -89 213 -107 220 -7 3 -13 12 -13 20 0 8
-15 35 -32 61 -28 40 -32 54 -30 93 3 38 0 51 -20 68 -32 30 -92 26 -96 -6 -3
-22 -22 -33 -22 -13 0 6 -9 10 -20 10 -11 0 -20 -4 -20 -10 0 -31 34 -129 55
-160 25 -36 61 -127 53 -135 -2 -2 -32 -1 -67 3 l-63 7 -42 100 c-24 55 -53
117 -65 138 -19 34 -20 40 -6 75 40 103 84 367 69 414 -6 19 -4 20 27 14 157
-33 317 -36 396 -7 75 27 118 56 153 103 29 40 30 46 30 142 0 61 -8 137 -19
191 -24 112 -92 310 -134 390 -28 54 -31 69 -32 155 -1 139 -15 161 -145 225
-34 17 -99 24 -134 14z m94 -47 c59 -12 119 -49 127 -80 10 -36 9 -157 -2
-206 -7 -34 -6 -38 7 -33 20 7 59 -78 122 -265 50 -148 61 -210 61 -347 l0
-93 -45 -39 c-60 -52 -143 -79 -239 -79 -79 0 -180 13 -242 32 l-37 11 28 59
c40 84 52 94 116 102 81 9 97 20 92 62 -3 28 -1 34 14 34 11 0 18 -8 19 -20 1
-11 2 -23 3 -27 1 -5 5 -26 9 -48 12 -64 28 -96 46 -93 9 2 15 12 15 23 -3 33
-51 253 -59 265 -4 7 2 18 14 26 24 17 27 46 7 67 -8 8 -16 27 -18 43 -2 20
-8 29 -20 28 -13 -1 -22 16 -38 70 -28 96 -58 167 -81 192 -10 11 -19 24 -19
28 0 14 40 -5 66 -31 28 -28 58 -26 104 7 31 22 70 97 70 134 0 38 -11 31 -64
-41 -30 -41 -53 -63 -66 -63 -30 0 -25 26 19 94 45 70 53 99 30 104 -11 2 -29
-19 -57 -66 -50 -84 -66 -99 -87 -82 -12 10 -9 23 25 91 44 86 47 99 25 99 -8
0 -26 -21 -41 -47 -52 -93 -74 -123 -91 -123 -40 0 32 194 82 219 11 6 31 8
45 5 14 -3 41 -8 60 -12z m-617 -155 c80 -48 127 -122 127 -201 0 -18 6 -41
14 -51 13 -18 17 -18 40 -5 23 12 29 12 42 -2 24 -24 33 -90 18 -128 -10 -22
-26 -36 -54 -47 -29 -12 -42 -23 -46 -42 -17 -77 -48 -123 -105 -151 -73 -38
-42 -73 40 -46 91 29 189 14 211 -32 10 -23 7 -35 -26 -99 -25 -49 -41 -70
-48 -63 -21 21 -71 9 -143 -36 -63 -39 -90 -49 -195 -70 -66 -14 -162 -41
-212 -60 -132 -51 -131 -51 -122 -28 13 32 20 228 9 221 -6 -4 -46 -77 -89
-163 -73 -146 -81 -158 -126 -186 -26 -16 -48 -36 -48 -44 0 -25 41 -15 114
29 204 123 448 206 615 209 58 1 93 -5 149 -25 71 -25 162 -87 162 -110 0 -21
-15 -35 -40 -38 -22 -4 -25 -8 -22 -41 2 -22 -1 -38 -7 -38 -6 0 -24 -14 -41
-30 -17 -17 -35 -30 -40 -30 -32 0 -126 47 -161 81 -22 21 -44 39 -47 39 -4 0
-33 -16 -64 -34 -155 -94 -403 -195 -513 -210 -69 -10 -187 16 -231 49 -49 38
-66 100 -47 180 28 121 135 318 222 408 60 63 153 130 213 152 48 18 141 15
179 -6 11 -5 21 -4 27 4 8 9 1 25 -24 57 -19 25 -46 66 -61 93 -21 37 -32 47
-52 47 -29 1 -62 24 -80 57 -28 53 -1 95 67 103 l47 5 1 65 c1 82 8 105 51
158 75 92 198 116 296 59z m565 -455 c29 -3 32 -6 26 -25 -4 -12 -10 -24 -15
-27 -10 -7 -69 -182 -69 -207 0 -14 -11 -23 -35 -30 -19 -6 -35 -8 -35 -4 0 4
23 46 50 94 28 48 50 95 50 105 -1 14 -2 15 -9 2 -242 -450 -261 -483 -261
-450 0 6 -5 8 -12 4 -11 -7 43 98 157 301 62 113 88 165 83 171 -5 4 -98 -155
-183 -313 -42 -79 -82 -146 -87 -150 -6 -3 -9 -2 -6 3 3 5 56 101 118 214 62
113 121 220 132 237 16 26 16 32 4 27 -8 -3 -18 -14 -21 -24 -3 -10 -13 -24
-22 -32 -12 -9 -10 -1 6 31 26 50 22 65 -6 24 -21 -30 -93 -161 -93 -168 0 -3
4 -5 10 -5 5 0 21 23 35 50 14 28 28 50 30 50 7 0 -17 -47 -60 -120 -17 -30
-60 -106 -95 -168 -34 -62 -64 -111 -66 -109 -2 2 31 66 74 143 l77 139 -23
24 -22 25 34 35 c19 20 47 56 63 81 15 25 43 67 61 93 l33 48 23 -33 c16 -24
30 -34 54 -36z m-242 -759 c-2 -10 -12 -49 -21 -88 -9 -38 -26 -91 -37 -117
l-21 -47 71 -158 c83 -186 93 -209 137 -328 33 -91 103 -307 123 -380 6 -22
22 -73 34 -114 l23 -74 85 -27 c131 -41 191 -77 222 -134 10 -18 2 -18 -254
-13 -144 3 -272 7 -282 9 -16 4 -26 29 -52 124 -55 205 -173 542 -229 658 -47
96 -52 112 -38 121 74 47 108 113 107 205 -2 51 -25 119 -55 161 -17 23 15 69
48 69 35 0 123 89 123 124 0 14 5 26 11 26 6 0 8 -8 5 -17z m-411 -112 c45 -3
48 -16 15 -70 -23 -36 -38 -51 -54 -51 -58 0 -102 -70 -85 -136 10 -37 8 -45
-25 -101 -20 -34 -36 -66 -36 -71 0 -5 -11 -21 -25 -36 -13 -14 -22 -32 -19
-39 8 -20 98 -77 122 -77 17 0 24 9 33 43 6 23 14 44 18 47 4 3 23 33 41 68
18 35 42 68 52 73 27 15 58 69 58 103 0 33 60 148 75 143 22 -8 58 -99 58
-145 0 -71 -24 -114 -87 -161 -85 -63 -102 -112 -71 -201 30 -84 15 -177 -41
-266 -95 -152 -325 -193 -495 -88 -67 42 -108 89 -147 167 -21 43 -25 66 -25
133 1 99 31 168 102 237 43 43 150 97 191 97 22 0 75 53 88 88 6 15 13 47 17
72 14 106 103 184 200 174 11 -1 29 -2 40 -3z m-280 -122 c-8 -23 -15 -54 -15
-69 0 -45 -43 -86 -108 -105 -82 -24 -125 -49 -180 -104 -59 -59 -91 -124
-105 -215 -9 -58 -8 -79 8 -140 10 -39 23 -78 28 -88 9 -13 -2 -45 -46 -145
-69 -155 -85 -198 -106 -287 l-17 -68 -160 -4 c-229 -6 -477 5 -464 20 24 30
115 67 205 85 56 12 106 28 118 38 22 20 48 74 83 177 13 38 33 84 44 103 11
19 20 39 20 44 0 13 88 163 127 216 37 52 127 155 241 276 50 54 92 106 92
115 0 9 11 41 23 71 22 53 23 53 92 75 39 12 79 28 90 34 38 22 45 15 30 -29z"/>
<path d="M1750 2375 c-84 -13 -110 -22 -110 -38 0 -6 27 -8 80 -3 82 7 94 1
62 -27 -15 -13 -29 -16 -66 -11 -44 6 -48 5 -44 -12 2 -12 16 -22 40 -28 62
-16 116 19 133 86 10 39 -10 46 -95 33z"/>
</g>
</svg>
