<?xml version="1.0" standalone="no"?>
<!DOCTYPE svg PUBLIC "-//W3C//DTD SVG 20010904//EN"
 "http://www.w3.org/TR/2001/REC-SVG-20010904/DTD/svg10.dtd">
<svg version="1.0" xmlns="http://www.w3.org/2000/svg"
 width="560.000000pt" height="560.000000pt" viewBox="0 0 560.000000 560.000000"
 preserveAspectRatio="xMidYMid meet">
<metadata>
Created by potrace 1.16, written by Peter Selinger 2001-2019
</metadata>
<g transform="translate(0.000000,560.000000) scale(0.100000,-0.100000)"
fill="#000000" stroke="none">
<path d="M2555 4959 c-77 -4 -176 -12 -220 -18 -44 -6 -102 -13 -130 -16 -27
-3 -61 -7 -75 -10 -14 -3 -47 -10 -75 -15 -27 -4 -81 -16 -120 -25 -38 -9 -90
-19 -115 -22 -25 -3 -47 -9 -50 -13 -3 -4 -18 -10 -35 -14 -80 -18 -106 -26
-180 -56 -44 -17 -111 -43 -150 -58 -38 -14 -71 -30 -73 -34 -2 -4 -11 -8 -19
-8 -8 0 -51 -20 -95 -45 -44 -25 -82 -45 -84 -45 -7 0 -99 -65 -102 -72 -2 -4
-9 -8 -17 -8 -18 0 -226 -207 -257 -255 -55 -87 -76 -133 -98 -215 -47 -178
-2 -364 129 -530 64 -81 125 -142 183 -181 31 -21 58 -42 60 -46 1 -5 17 -16
33 -25 17 -9 31 -23 33 -30 4 -21 -75 -133 -135 -192 -28 -28 -89 -71 -135
-96 -49 -27 -84 -53 -86 -63 -5 -25 24 -55 62 -63 17 -3 37 -11 45 -18 25 -20
245 -11 321 14 35 11 67 24 70 28 3 4 23 16 44 27 22 11 76 56 120 99 l80 79
41 -12 c22 -6 60 -18 85 -26 177 -54 289 -82 429 -108 55 -10 62 -14 48 -25
-24 -20 -76 -106 -88 -144 -6 -18 -10 -63 -10 -100 l0 -68 -42 -1 c-23 -1 -46
-1 -51 0 -5 1 -22 -3 -38 -8 -16 -6 -68 -16 -116 -22 -48 -6 -98 -16 -112 -21
-14 -5 -45 -13 -70 -18 -60 -10 -301 -87 -314 -100 -5 -5 -17 -10 -25 -10 -8
0 -57 -21 -109 -47 -145 -73 -167 -85 -172 -93 -3 -4 -19 -16 -37 -27 -71 -43
-173 -142 -227 -220 -31 -45 -56 -87 -56 -93 0 -6 -6 -21 -12 -33 -34 -59 -45
-256 -18 -306 5 -11 10 -31 10 -45 0 -14 4 -26 8 -26 4 0 17 -19 29 -43 52
-106 180 -238 323 -334 77 -51 241 -132 330 -163 19 -6 46 -18 60 -25 14 -7
41 -16 60 -20 19 -4 40 -10 45 -14 14 -8 167 -47 325 -82 145 -32 154 -33 275
-43 44 -4 118 -11 165 -17 281 -32 768 1 1065 74 93 23 263 75 338 103 l68 26
59 -46 c32 -25 63 -46 69 -46 6 0 11 -4 11 -10 0 -5 5 -10 11 -10 6 0 23 -8
37 -18 26 -18 116 -53 217 -86 87 -28 271 -36 390 -16 145 24 276 86 262 123
-3 8 -25 18 -49 22 -24 3 -63 13 -88 22 -79 27 -228 106 -250 133 -3 3 -21 17
-40 30 -42 29 -128 118 -136 143 -3 9 -9 17 -13 17 -4 0 -13 10 -18 23 -9 20
-6 30 23 68 41 52 100 170 111 219 15 68 7 241 -15 294 -27 67 -123 195 -205
271 l-67 63 52 17 c29 9 70 23 90 32 35 15 37 14 60 -7 95 -90 276 -157 413
-152 85 3 182 14 194 22 9 5 11 17 8 31 -8 28 -63 89 -80 89 -20 0 -120 112
-161 179 l-38 61 31 39 c54 68 83 145 83 216 0 56 -5 72 -42 135 -68 116 -142
178 -304 255 l-98 46 104 52 c57 29 117 62 132 75 16 12 33 22 38 22 5 0 14 5
21 10 7 6 41 33 76 60 90 71 137 114 158 147 10 15 26 34 35 41 10 7 18 19 18
27 0 8 6 18 13 22 51 32 116 224 117 346 0 64 -24 183 -46 225 -8 15 -14 30
-14 33 0 11 -79 126 -95 139 -8 7 -15 18 -15 26 0 7 -6 17 -14 21 -8 4 -45 36
-82 69 -108 96 -200 164 -223 164 -5 0 -14 6 -20 14 -12 14 -56 37 -211 108
-71 33 -239 94 -325 118 -152 42 -237 60 -300 65 -11 1 -35 5 -53 9 -19 4 -43
9 -55 11 -12 1 -51 8 -87 14 -208 34 -570 52 -825 40z m630 -74 c178 -21 271
-34 335 -49 267 -62 379 -92 475 -129 22 -9 72 -27 110 -42 204 -77 426 -214
537 -331 98 -104 145 -174 181 -272 41 -110 27 -286 -31 -397 -9 -16 -15 -33
-14 -37 1 -5 -2 -8 -8 -8 -5 0 -17 -14 -26 -31 -27 -52 -173 -191 -274 -261
-52 -36 -158 -96 -234 -133 l-139 -67 -61 16 c-75 19 -192 42 -266 51 -30 4
-64 9 -75 11 -127 24 -541 23 -705 -1 -202 -30 -283 -47 -445 -97 -84 -27
-266 -111 -342 -158 -18 -12 -42 -10 -175 14 -160 30 -374 86 -493 130 -38 15
-75 24 -82 22 -7 -3 -21 -23 -32 -44 -38 -75 -172 -168 -283 -197 -62 -15
-201 -26 -241 -18 -27 6 -26 7 36 49 109 72 199 188 236 303 6 18 9 37 6 41
-3 5 -38 30 -77 56 -78 51 -87 57 -123 92 -13 12 -26 22 -29 22 -10 0 -102
104 -140 159 -50 71 -82 150 -97 237 -14 84 -14 75 -1 150 39 228 233 439 562
611 77 40 161 79 190 88 3 1 16 6 30 12 14 5 70 25 125 44 55 18 102 37 103
41 2 5 7 6 12 3 4 -2 41 4 81 15 72 18 192 44 254 54 17 3 73 12 125 21 172
30 384 43 670 39 151 -1 298 -5 325 -9z m455 -1740 c14 -2 64 -9 111 -14 278
-31 597 -150 722 -269 75 -72 90 -104 91 -190 1 -86 -18 -134 -73 -186 -17
-17 -31 -40 -31 -52 0 -41 88 -207 139 -264 l50 -55 -41 -3 c-55 -4 -183 23
-251 52 -30 14 -81 46 -112 72 l-58 47 -81 -27 c-45 -14 -109 -33 -143 -41
-60 -15 -63 -15 -105 6 -24 12 -45 24 -48 28 -18 22 -234 115 -395 170 -75 25
-162 48 -291 76 l-21 5 24 107 c13 60 26 125 30 146 6 37 6 37 54 37 27 0 49
3 49 8 0 4 19 7 42 7 40 0 43 2 46 29 l4 29 -178 -8 c-98 -4 -188 -9 -199 -12
-11 -2 -35 -6 -54 -8 -39 -4 -67 -27 -56 -45 6 -10 35 -11 118 -7 l109 7 -6
-23 c-3 -12 -16 -73 -28 -136 l-23 -113 -45 5 c-25 3 -106 13 -180 22 -144 18
-474 26 -628 16 -91 -6 -93 -6 -99 17 -9 37 4 132 21 151 9 10 16 22 16 27 1
13 58 73 108 112 130 103 377 200 617 242 33 5 71 12 85 15 14 3 72 9 130 15
58 6 121 12 140 14 43 5 405 -3 440 -9z m-919 -655 c122 -11 430 -62 479 -80
14 -5 41 -12 60 -15 82 -16 314 -100 425 -154 227 -111 394 -242 466 -367 38
-66 45 -84 64 -167 28 -127 -15 -276 -115 -389 -61 -70 -61 -78 4 -165 44 -58
175 -179 205 -191 9 -3 23 -13 31 -22 27 -30 166 -100 226 -114 l59 -14 -30
-12 c-16 -7 -70 -20 -118 -29 -110 -20 -281 -12 -375 18 -114 37 -248 112
-324 180 -69 63 -71 64 -102 52 -87 -35 -196 -75 -241 -88 -131 -37 -239 -63
-335 -78 -58 -9 -125 -20 -150 -25 -25 -5 -101 -11 -170 -15 -69 -3 -143 -8
-165 -11 -44 -6 -254 -5 -325 1 -25 2 -83 6 -130 10 -144 10 -398 53 -535 90
-71 20 -146 40 -166 45 -48 13 -247 99 -334 144 -371 194 -547 464 -465 711
38 115 111 210 247 321 99 80 333 195 510 249 167 52 474 108 678 124 128 11
447 6 626 -9z"/>
<path d="M3585 4270 c-38 -15 -39 -17 -84 -210 -19 -82 -54 -283 -64 -366 -11
-99 61 -98 77 1 3 22 8 56 11 75 3 19 11 52 17 73 9 30 16 37 37 37 14 0 43 3
64 6 37 7 38 6 158 -115 75 -76 127 -121 137 -119 30 6 25 44 -11 85 -18 21
-52 64 -75 95 -23 31 -46 59 -52 63 -19 12 -10 21 44 44 86 38 135 119 121
201 -9 50 -68 106 -122 115 -21 3 -57 10 -80 16 -50 11 -150 11 -178 -1z m171
-75 c80 -12 102 -19 116 -37 40 -52 2 -118 -87 -152 -44 -16 -206 -49 -212
-42 -2 2 1 28 7 57 5 30 15 84 21 122 13 78 4 75 155 52z"/>
<path d="M3114 4249 c-149 -8 -198 -30 -210 -95 -3 -19 -10 -34 -14 -34 -12 0
-80 -347 -83 -430 l-2 -45 55 -2 c62 -3 256 15 312 28 40 10 61 44 37 60 -15
10 -110 5 -204 -11 -33 -5 -75 -10 -94 -10 -33 0 -33 0 -26 38 4 20 9 48 11
62 13 76 17 79 119 80 73 1 202 23 217 38 17 17 5 46 -25 60 -21 10 -39 11
-75 3 -26 -5 -80 -13 -121 -17 l-73 -7 5 39 c19 130 28 143 106 150 156 14
262 35 268 52 8 20 -21 45 -54 46 -15 1 -82 -2 -149 -5z"/>
<path d="M1705 4191 c-38 -4 -80 -11 -93 -15 -28 -9 -48 -48 -57 -111 -4 -28
-13 -72 -21 -100 -7 -27 -23 -97 -34 -155 -11 -58 -26 -120 -31 -138 -13 -39
1 -62 36 -62 31 0 41 16 49 75 18 136 20 140 46 143 85 9 292 55 326 71 23 11
55 36 73 56 25 29 31 44 31 83 0 122 -113 175 -325 153z m220 -91 c19 -11 31
-26 33 -43 4 -31 -13 -67 -32 -67 -8 0 -19 -6 -25 -13 -6 -8 -48 -21 -93 -31
-46 -10 -99 -22 -119 -27 -20 -5 -48 -9 -63 -9 -29 0 -30 -10 2 125 9 39 18
72 19 74 6 9 148 17 198 12 28 -2 64 -12 80 -21z"/>
<path d="M2449 4196 c-2 -2 -49 -7 -104 -11 -112 -8 -119 -12 -130 -78 -4 -23
-11 -46 -15 -52 -4 -5 -10 -32 -12 -60 -3 -27 -13 -123 -23 -213 -14 -121 -15
-166 -7 -174 8 -8 25 -8 64 0 29 6 121 19 203 28 83 10 156 22 163 27 18 14
15 45 -5 55 -20 10 -69 8 -233 -12 -63 -7 -117 -12 -118 -10 -6 4 20 158 27
166 4 5 52 15 106 23 196 29 225 39 225 76 0 28 -34 32 -174 20 -70 -6 -131
-11 -137 -11 -10 0 -1 110 11 123 4 4 69 11 144 14 170 7 190 11 194 45 2 19
-2 28 -17 33 -24 7 -156 16 -162 11z"/>
<path d="M3543 2841 c-93 -43 -155 -214 -112 -307 41 -86 131 -116 230 -78 59
23 86 49 116 113 22 45 25 63 21 120 -3 37 -11 80 -19 97 -29 61 -158 92 -236
55z m183 -76 c22 -30 25 -105 5 -149 -22 -50 -45 -71 -97 -90 -82 -28 -144 12
-144 95 0 54 27 125 59 153 44 39 144 34 177 -9z"/>
<path d="M3233 1891 c-47 -12 -60 -26 -77 -84 -14 -48 -61 -250 -71 -307 -3
-14 -7 -35 -9 -48 -3 -15 2 -30 15 -43 19 -19 22 -20 39 -4 12 11 24 44 32 91
6 41 14 78 17 83 4 4 36 11 72 15 l66 7 34 -43 c20 -24 45 -59 56 -78 48 -79
105 -104 111 -49 2 19 -13 51 -52 108 -31 45 -56 83 -56 85 0 2 14 6 30 10 75
14 126 81 115 149 -9 51 -18 63 -69 89 -45 23 -194 34 -253 19z m220 -75 c71
-35 38 -105 -58 -123 -11 -2 -57 -10 -103 -18 -45 -9 -86 -14 -90 -11 -5 3 -2
42 4 88 7 46 13 85 13 87 1 2 45 1 99 -1 66 -3 109 -10 135 -22z"/>
<path d="M1358 1883 c-31 -5 -34 -12 -67 -188 -39 -205 -42 -220 -44 -260 -2
-34 1 -40 19 -43 21 -3 44 31 44 65 0 9 5 44 11 78 l11 62 123 7 c158 8 207
27 235 88 25 55 25 82 -2 129 -31 55 -74 69 -201 68 -56 -1 -114 -4 -129 -6z
m272 -78 c19 -12 11 -71 -12 -92 -26 -23 -55 -29 -187 -39 -88 -6 -93 -6 -88
12 3 11 9 40 13 67 3 26 11 50 16 53 31 20 226 19 258 -1z"/>
<path d="M1998 1859 c-26 -15 -37 -41 -63 -147 -44 -189 -50 -218 -50 -272 l0
-55 60 1 c81 0 125 7 125 17 0 4 4 6 9 3 8 -5 46 0 139 20 17 3 22 10 20 27
-4 29 -37 33 -150 17 -68 -10 -88 -17 -89 -29 0 -10 -2 -12 -6 -3 -2 6 -11 12
-19 12 -17 0 -18 31 -3 100 8 39 16 51 32 55 31 6 152 23 219 30 62 7 72 13
62 40 -6 15 -20 17 -98 14 -50 -2 -115 -2 -144 -1 -49 2 -52 3 -42 21 5 11 10
31 10 45 0 14 4 27 9 30 5 3 67 11 138 18 129 11 161 22 150 52 -5 14 -28 16
-149 16 -79 0 -151 -5 -160 -11z"/>
<path d="M2640 1863 c-70 -7 -78 -11 -94 -55 -31 -87 -66 -244 -73 -336 -7
-82 -1 -85 137 -79 180 9 250 23 250 51 0 21 -30 25 -172 23 l-130 -2 6 64 c3
35 7 65 8 67 2 1 50 3 108 5 58 1 125 8 149 14 44 11 73 37 57 52 -4 4 -73 9
-153 11 l-146 4 7 46 c3 25 11 49 16 52 6 4 50 7 98 8 131 4 195 12 212 28 13
12 13 16 0 29 -11 10 -46 15 -130 18 -63 2 -131 2 -150 0z"/>
</g>
</svg>
