<?xml version="1.0" standalone="no"?>
<!DOCTYPE svg PUBLIC "-//W3C//DTD SVG 20010904//EN"
 "http://www.w3.org/TR/2001/REC-SVG-20010904/DTD/svg10.dtd">
<svg version="1.0" xmlns="http://www.w3.org/2000/svg"
 width="560.000000pt" height="560.000000pt" viewBox="0 0 560.000000 560.000000"
 preserveAspectRatio="xMidYMid meet">
<metadata>
Created by potrace 1.16, written by Peter Selinger 2001-2019
</metadata>
<g transform="translate(0.000000,560.000000) scale(0.100000,-0.100000)"
fill="#000000" stroke="none">
<path d="M2728 5255 c-2 -2 -31 -6 -64 -9 -82 -8 -197 -32 -259 -55 -68 -26
-230 -106 -259 -128 -12 -10 -52 -33 -87 -51 -96 -49 -268 -182 -319 -247 -25
-31 -67 -85 -94 -118 -168 -212 -264 -424 -296 -652 -10 -74 -14 -316 -5 -375
49 -350 63 -416 143 -650 45 -131 89 -238 173 -418 16 -34 29 -65 29 -68 0 -6
33 -79 106 -231 30 -62 54 -118 54 -123 0 -6 8 -27 19 -48 36 -72 158 -407
172 -472 5 -25 13 -54 17 -65 10 -23 26 -67 50 -140 9 -27 21 -53 27 -57 5 -4
7 -8 3 -8 -11 0 27 -100 80 -210 62 -132 293 -460 322 -460 4 0 36 -27 71 -60
81 -76 203 -151 294 -181 39 -12 86 -28 105 -35 19 -7 53 -13 75 -13 22 -1 47
-2 55 -3 37 -5 240 15 285 27 65 19 218 119 275 182 25 27 74 80 108 118 115
127 218 321 262 495 16 62 23 129 27 250 3 91 3 163 0 159 -4 -3 -20 -72 -36
-153 -37 -177 -61 -277 -71 -291 -4 -5 -13 -28 -20 -50 -11 -34 -30 -73 -84
-170 -31 -55 -97 -140 -181 -231 -5 -6 -26 -28 -45 -50 -20 -21 -47 -47 -60
-56 -14 -10 -43 -31 -65 -48 -60 -46 -134 -78 -190 -84 -155 -17 -258 -18
-299 -2 -22 8 -50 17 -61 19 -80 15 -253 114 -345 198 -19 17 -44 39 -56 48
-11 9 -38 41 -59 71 -22 30 -56 76 -77 101 -21 26 -38 49 -38 52 0 3 -25 41
-55 86 -30 45 -55 85 -55 89 0 4 -10 27 -22 52 -12 25 -25 54 -29 65 -5 11
-19 47 -32 80 -14 33 -34 92 -46 130 -13 39 -27 79 -32 90 -5 11 -11 31 -14
45 -7 37 -97 294 -129 370 -15 36 -32 79 -37 97 -5 18 -16 45 -24 60 -8 15
-15 32 -15 37 0 5 -21 52 -46 105 -50 104 -92 194 -105 226 -4 11 -23 54 -42
95 -19 41 -58 131 -87 200 -28 69 -56 134 -60 145 -5 11 -24 67 -43 125 -97
299 -146 683 -118 931 29 254 176 535 413 787 63 66 233 199 298 232 48 24
219 84 375 130 116 35 417 50 558 29 144 -21 320 -85 432 -157 69 -45 216
-185 292 -279 21 -26 44 -55 52 -63 27 -28 106 -156 156 -253 28 -53 51 -92
53 -87 8 22 -31 155 -64 223 -40 83 -141 224 -235 328 -35 40 -66 75 -69 78
-14 18 -121 101 -165 128 -126 78 -289 135 -450 158 -79 11 -328 19 -337 10z"/>
<path d="M2795 4718 c-33 -5 -69 -13 -80 -18 -11 -5 -45 -19 -75 -31 -30 -12
-62 -28 -71 -36 -8 -7 -22 -13 -31 -13 -25 0 -181 -99 -231 -148 -50 -49 -147
-165 -147 -176 0 -4 -11 -24 -25 -44 -27 -39 -85 -210 -104 -307 -37 -182 -20
-446 44 -690 44 -169 68 -234 151 -420 12 -28 36 -84 52 -125 16 -41 50 -115
74 -165 143 -288 202 -425 271 -635 69 -209 107 -333 107 -351 0 -9 18 -52 39
-96 89 -176 263 -284 434 -269 39 3 76 11 81 16 6 6 21 10 35 10 38 0 122 71
158 134 38 69 93 189 107 237 8 31 18 96 21 145 6 104 7 104 -71 -81 -57 -136
-127 -258 -177 -306 -99 -98 -300 -89 -417 18 -47 42 -100 135 -130 229 -12
38 -26 80 -32 94 -6 14 -19 57 -30 95 -10 39 -23 84 -28 100 -15 55 -82 240
-102 285 -11 25 -26 61 -33 81 -7 19 -54 118 -105 220 -50 101 -98 198 -105
214 -7 17 -31 68 -53 115 -21 47 -47 108 -57 135 -25 73 -30 85 -53 136 -32
71 -101 334 -101 384 0 29 0 29 12 9 12 -21 100 -122 208 -239 68 -73 141
-169 163 -212 31 -62 64 -169 81 -261 9 -52 20 -104 25 -115 7 -20 10 -19 25
18 14 32 16 60 13 135 -7 124 -45 224 -128 335 -33 44 -69 95 -81 113 -11 17
-24 32 -28 32 -4 0 -41 32 -82 71 -41 40 -91 83 -111 97 -36 23 -78 82 -106
145 -15 35 -16 252 -1 296 l11 31 28 -30 c54 -58 109 -74 250 -73 167 0 287
34 421 119 123 78 187 155 271 327 56 112 77 183 85 283 l6 71 72 -32 c39 -17
94 -47 122 -68 85 -62 196 -246 213 -354 19 -112 24 -104 -107 -176 -196 -106
-214 -117 -328 -193 -117 -79 -184 -136 -230 -197 -97 -129 -134 -333 -87
-472 34 -98 71 -199 81 -216 5 -8 14 -42 21 -74 14 -69 7 -150 -20 -227 -39
-112 -51 -248 -28 -333 34 -130 159 -238 290 -252 102 -10 161 27 264 163 62
83 71 114 17 62 -53 -51 -184 -148 -200 -148 -7 0 -13 -4 -13 -8 0 -15 -109 5
-151 27 -54 29 -92 69 -124 134 -42 86 -36 180 23 373 32 101 17 237 -39 359
-39 87 -71 199 -76 266 -5 65 -2 87 21 155 15 43 35 93 44 110 24 46 92 116
159 166 32 24 60 45 63 49 3 3 12 9 20 13 8 3 42 25 75 46 33 22 70 45 83 50
13 6 45 25 70 42 26 18 63 41 82 51 19 11 44 27 55 37 46 40 49 38 42 -31 -11
-107 -36 -237 -69 -354 -18 -66 -26 -194 -17 -277 10 -88 8 -94 -51 -173 -21
-27 -43 -68 -50 -90 -7 -22 -16 -50 -21 -63 -15 -38 -10 -95 15 -192 20 -79
30 -98 60 -126 67 -61 169 -70 242 -20 l39 26 8 -27 c15 -49 11 -263 -6 -341
-24 -107 -33 -197 -19 -188 27 16 75 102 93 164 28 96 35 265 15 375 -9 48
-20 96 -26 107 -5 10 -10 26 -10 36 0 19 -124 281 -145 304 -7 8 -16 31 -20
50 -4 19 -11 40 -15 45 -35 49 -45 250 -16 368 41 169 47 199 61 292 19 126
19 190 0 296 -16 92 -40 150 -105 249 -62 95 -117 148 -190 184 -36 18 -87 47
-115 65 -27 17 -92 45 -143 61 -99 32 -177 37 -307 18z m280 -82 c39 -12 40
-13 38 -56 -2 -51 -56 -222 -81 -260 -9 -14 -24 -41 -33 -60 -78 -168 -247
-303 -449 -357 -65 -17 -176 -21 -255 -9 -62 10 -175 59 -175 76 0 19 42 150
65 204 42 98 185 266 260 303 16 8 37 21 45 27 19 16 179 88 245 112 88 31
269 42 340 20z m535 -1648 l71 -143 -27 -3 c-61 -8 -111 8 -154 48 -41 38 -43
41 -37 85 5 36 60 155 72 155 2 0 35 -64 75 -142z"/>
</g>
</svg>
